<?xml version="1.0" encoding="utf-8"?>
<!-- Generator: Adobe Illustrator 25.2.2, SVG Export Plug-In . SVG Version: 6.00 Build 0)  -->
<svg version="1.1" id="Layer_1" xmlns="http://www.w3.org/2000/svg" xmlns:xlink="http://www.w3.org/1999/xlink" x="0px" y="0px"
	 viewBox="0 0 841.9 595.3" style="enable-background:new 0 0 841.9 595.3;" xml:space="preserve">
<style type="text/css">
	.st0{fill:#7A8F44;}
	.st1{fill:#5D6A33;}
	.st2{fill:#7CCAB0;}
	.st3{fill:#63AD91;}
	.st4{fill:#BFE2CF;}
	.st5{fill:#5D603B;}
</style>
<path class="st0" d="M803,158.3c-30-28,21,59,21,59s-31-47-50-57s26,59.2,26,59.2s-19-20.2-40-41.2c-12.5-12.5-4.1,4.4,4.7,20.2
	c-6.3-9.2-14.9-20.2-25.7-30.2c-19.2-17.7,4.7,22.1,16.8,41.4c-9.6-14.8-28.3-42-39.8-48.4c-16-9,19,58.2,19,58.2s-10-19.2-26-33.2
	s10,33.2,10,33.2s-28.7-42.2-50.8-56.2c-7.1-4.5-7.2-0.3-4,7.4c-4.1-3.5-8.8-6.4-14-8.4c-29.8-11.5,14,51.5,17.7,56.8
	c-2.6-3.6-24-33.4-40.9-41.8c-4.4-2.2-5.3-0.8-4.1,2.5c-6.9-7.7-14.2-13.9-20.9-15.5c-11.4-2.7-6.9,12.5-0.4,26.9
	c-4-6.4-8.7-12.7-13.6-16.9c-6.2-5.3-4.4,2.9-0.4,13.8c-3.4-5.2-7.6-10.1-12.6-13.8c-19-14,10,45.2,10,45.2s-38-63.3-51-66.7
	s23,62.6,23,62.6s-16-22-32-34c-5.5-4.1-6.3-1.4-4.9,4.1c-6.7-13.4-15-26.6-22.1-28.1c-15-3,14,56,14,56s-20-37-29-41
	c-4.7-2.1-1.2,10.8,3.1,23.6c-4.8-10.7-11.1-21.9-18.1-26.6c-15-10,10,50.1,10,50.1s-22-49.1-37-59.1c-8.4-5.6-1.7,13.6,5.8,31.6
	c-7.6-15.3-17.5-31.6-25.8-33.6c-14.9-3.7,13.1,53.2,16.7,60.4c-3.1-6.1-24.3-47.8-32.6-53.4c-9-6,19,54.1,19,54.1s-22-31.1-36-41.1
	c-7.8-5.6-4.4,7.9,0.1,20.9c-5.7-12.6-14-27.9-24.1-35.9c-17.3-13.6,8.4,43.8,13.2,54.4c-3.3-7-16.6-33.9-32.2-43.4
	c-10.7-6.6-4,12.9,3.1,29.6c-8.4-17.1-20.7-38.9-30.1-43.6c-16-8,15,66,15,66s-27-54-37-60c-9.3-5.6,10.1,45.6,12.7,52.4
	c-1.8-4.6-11.8-29.6-22.7-41.4c-12-13,5,47,5,47s-12-34-28-48c-8.4-7.3-3.9,6.6,2.3,21.6c-8.3-17.3-18.8-36.5-25.3-38.6
	c-11.9-4,18.3,65.4,19,67c-0.6-1.4-20.2-46-32-51c-9.1-3.8,3.6,29.2,10.3,45.4c-6.1-13.8-18.7-39.7-28.7-43.4
	c-7.5-2.7-1.3,13,5.8,27.9c-8.3-14.8-19.2-31.6-27.7-35.9c-15.8-8,16.2,58,16.2,58s-25-46-36-51c-2.1-1-2.9,0.4-2.7,3.3
	c-4.7-9.9-10-18.5-15.3-22.3c-17-12,19,67,19,67s-25-44-39-50s17,54,17,54s-19-34-34-46c-2.9-2.3-4.3-2-4.5,0.1
	c-3.2-6.2-6.8-10.8-10.5-12.1c-6.6-2.4-4.8,10.6-1,25c-6.7-18.7-15.5-38.9-22.8-42.7c-11.1-5.7,5.4,44.4,13.1,66.5
	C81,204.7,71,179.3,64,172.3c-10-10,9.2,57,9.2,57s-18.9-45-29.1-55c-9.2-9,6.2,44.5,9.3,55.2c-3.1-10.3-18.4-60.8-26.5-66.2
	c-9-6,10,63,10,63s-12-38-21-48s9,51,9,51s-12-30.8-25-44.9v27.8c3.7,8.4,7,15.1,7,15.1s-2.9-4.3-7-10.2v69.1h841.9v-67.9
	C841.9,218.3,833,186.3,803,158.3z"/>
<path class="st1" d="M803,197.7c-30-28,21,59,21,59s-31-47-50-57s26,59.2,26,59.2s-19-20.2-40-41.2c-12.5-12.5-4.1,4.4,4.7,20.2
	c-6.3-9.2-14.9-20.2-25.7-30.2c-19.2-17.7,4.7,22.1,16.8,41.4c-9.6-14.8-28.3-42-39.8-48.4c-16-9,19,58.2,19,58.2s-10-19.2-26-33.2
	s10,33.2,10,33.2s-28.7-42.2-50.8-56.2c-7.1-4.5-7.2-0.3-4,7.4c-4.1-3.5-8.8-6.4-14-8.4c-29.8-11.5,14,51.5,17.7,56.8
	c-2.6-3.6-24-33.4-40.9-41.8c-4.4-2.2-5.3-0.8-4.1,2.5c-6.9-7.7-14.2-13.9-20.9-15.5c-11.4-2.7-6.9,12.5-0.4,26.9
	c-4-6.4-8.7-12.7-13.6-16.9c-6.2-5.3-4.4,2.9-0.4,13.8c-3.4-5.2-7.6-10.1-12.6-13.8c-19-14,10,45.2,10,45.2s-38-63.3-51-66.7
	s23,62.6,23,62.6s-16-22-32-34c-5.5-4.1-6.3-1.4-4.9,4.1c-6.7-13.4-15-26.6-22.1-28.1c-15-3,14,56,14,56s-20-37-29-41
	c-4.7-2.1-1.2,10.8,3.1,23.6c-4.8-10.7-11.1-21.9-18.1-26.6c-15-10,10,50.1,10,50.1s-22-49.1-37-59.1c-8.4-5.6-1.7,13.6,5.8,31.6
	c-7.6-15.3-17.5-31.6-25.8-33.6c-14.9-3.7,13.1,53.2,16.7,60.4c-3.1-6.1-24.3-47.8-32.6-53.4c-9-6,19,54.1,19,54.1s-22-31.1-36-41.1
	c-7.8-5.6-4.4,7.9,0.1,20.9c-5.7-12.6-14-27.9-24.1-35.9c-17.3-13.6,8.4,43.8,13.2,54.4c-3.3-7-16.6-33.9-32.2-43.4
	c-10.7-6.6-4,12.9,3.1,29.6c-8.4-17.1-20.7-38.9-30.1-43.6c-16-8,15,66,15,66s-27-54-37-60c-9.3-5.6,10.1,45.6,12.7,52.4
	c-1.8-4.6-11.8-29.6-22.7-41.4c-12-13,5,47,5,47s-12-34-28-48c-8.4-7.3-3.9,6.6,2.3,21.6c-8.3-17.3-18.8-36.5-25.3-38.6
	c-11.9-4,18.3,65.4,19,67c-0.6-1.4-20.2-46-32-51c-9.1-3.8,3.6,29.2,10.3,45.4c-6.1-13.8-18.7-39.7-28.7-43.4
	c-7.5-2.7-1.3,13,5.8,27.9c-8.3-14.8-19.2-31.6-27.7-35.9c-15.8-8,16.2,58,16.2,58s-25-46-36-51c-2.1-1-2.9,0.4-2.7,3.3
	c-4.7-9.9-10-18.5-15.3-22.3c-17-12,19,67,19,67s-25-44-39-50s17,54,17,54s-19-34-34-46c-2.9-2.3-4.3-2-4.5,0.1
	c-3.2-6.2-6.8-10.8-10.5-12.1c-6.6-2.4-4.8,10.6-1,25c-6.7-18.8-15.4-39-22.8-42.8c-11.1-5.7,5.4,44.4,13.1,66.5
	C81,244.1,71,218.7,64,211.7c-10-10,9.2,57,9.2,57s-18.9-45-29.1-55c-9.2-9,6.2,44.5,9.3,55.2c-3.1-10.3-18.4-60.8-26.5-66.2
	c-9-6,10,63,10,63s-12-38-21-48s9,51,9,51s-12-30.8-25-44.9v27.8c3.7,8.4,7,15.1,7,15.1s-2.9-4.3-7-10.2v69.1h841.9v-67.9
	C841.9,257.7,833,225.7,803,197.7z"/>
<rect y="297.6" class="st2" width="841.9" height="297.6"/>
<path class="st3" d="M0,325.6c0,0,431.6,9.7,541.1,30.7s-51,25.6-51,25.6s123.1,30.8,351.8,30.8v-119H0V325.6z"/>
<path class="st3" d="M0,595.3V494.9c0,0,276.8,38.3,420.9,38.3s-5.8-49.8-5.8-49.8s106.5,11.4,426.7,11.4v100.3H0V595.3z"/>
<path class="st4" d="M605,430.3c-24.9,0.3-74.4,10.8-97,22.8c-38.2,20.3,168.8,47,333.9,22v-37.8C841.9,437.3,747.1,428.5,605,430.3
	z"/>
<path class="st4" d="M287,373.3c0,0,94,0.6,102,18s-154,32.4-240,32.4s-149,0-149,0v-43.1L287,373.3z"/>
<g>
	<path class="st5" d="M557,445.1l4,15.7c0,0,84,10.3,166,10.3s114.9-6,114.9-6v-16L557,445.1z"/>
	<path class="st1" d="M841.9,341.1c0,0-125.9,8-170.9,23s-114,81-114,81s71,12,134,15s150.9-4,150.9-4V341.1z"/>
	<path class="st0" d="M724,412.1c50.2,3,92.4-6.2,117.9-14v-57c0,0-125.9,8-170.9,23c-17.2,5.7-37.9,18.9-57,33.1
		C640.1,402.7,679,409.4,724,412.1z"/>
	<g>
		<path class="st0" d="M668,421.6c-1.5-2.5-22.5-5.5-28-5.5s-9,12-7.5,14S670.9,426.3,668,421.6z"/>
		<path class="st0" d="M686.2,430.5c-2.7-1-8.9-3.2-10.2-5.1s10.9-3.8,13.7-3.6c2.8,0.2,6.8,4.8,6.8,5.9
			C696.4,428.8,687.9,431.2,686.2,430.5z"/>
	</g>
	<path class="st0" d="M662.1,370.9c0,0-15-9.5-18.8-14.8c-3.9-5.3,20.9,11.5,20.9,11.5s-5.7-9-4.7-17s9.3,14.2,9.3,14.2
		s0.6-11.4,3.6-16.7s1.9,19.5,1.9,19.5L662.1,370.9z"/>
</g>
<g>
	<path class="st5" d="M351,379.6v9.1c0,0-134,20-207,25s-144,0-144,0v-10L351,379.6z"/>
	<path class="st1" d="M0,330.7c0,0,94,3,195,16s156,32.9,156,32.9S143,403.7,0,403.7V330.7z"/>
	<path class="st0" d="M106,379.6c29.7-3.5,98.9-16.7,140.8-25c-15.6-2.7-32.9-5.4-51.8-7.8c-101-13-195-16-195-16v49.9
		C27.1,381.8,75.6,383.1,106,379.6z"/>
	<g>
		<path class="st0" d="M208.5,370c-1.2-1.3-14.7-0.6-18.2,0c-3.4,0.7-4.1,8.6-2.9,9.7S210.9,372.6,208.5,370z"/>
		<path class="st0" d="M220.9,373.3c-1.8-0.3-6-0.9-7-1.9s6.3-3.7,8.1-4s4.8,2.2,5,2.8S222.1,373.5,220.9,373.3z"/>
	</g>
	<path class="st0" d="M50.5,336.7c0,0-8-21-6-26.5s10.1,23.3,10.1,23.3s2.9-13.3,5.9-18.3s0,21.5,0,21.5s8-13.2,12-13.6
		S63,341.7,63,341.7L50.5,336.7z"/>
</g>
<path class="st5" d="M0,302.7c0,0,96,2.6,301,6.8s540.9-6.8,540.9-6.8v-9H0V302.7z"/>
<path class="st4" d="M658.6,499.1c0,0-73.6-5.8-110.6-13.9s-17,15.9,48,19.9S699,502.9,658.6,499.1z"/>
<path class="st4" d="M380,379.6c-4,0.2,24,7.1,23,15.1s-37.5,17.4-38,21.2s47.5-11.7,50-21.2S390,379.1,380,379.6z"/>
<path class="st3" d="M102.3,466.4c0,0,63.9,20,176.4,23.9c112.5,3.8,132-6.6,10.5-23.9C167.6,449.1,29.4,443.2,102.3,466.4z"/>
</svg>
